<?xml version="1.0" encoding="UTF-8" standalone="no"?>
<!DOCTYPE svg PUBLIC "-//W3C//DTD SVG 1.1//EN"
 "http://www.w3.org/Graphics/SVG/1.1/DTD/svg11.dtd">
<!-- Generated by graphviz version 9.0.0 (20230911.1827)
 -->
<!-- Title: G Pages: 1 -->
<svg width="261pt" height="88pt"
 viewBox="0.00 0.00 261.38 87.75" xmlns="http://www.w3.org/2000/svg" xmlns:xlink="http://www.w3.org/1999/xlink">
<g id="graph0" class="graph" transform="scale(1 1) rotate(0) translate(4 83.75)">
<title>G</title>
<polygon fill="white" stroke="none" points="-4,4 -4,-83.75 257.38,-83.75 257.38,4 -4,4"/>
<!-- head -->
<g id="node1" class="node">
<title>head</title>
<ellipse fill="#f4f7ff" stroke="black" cx="33.44" cy="-61.75" rx="33.44" ry="18"/>
<text text-anchor="middle" x="33.44" y="-56.7" font-family="Courier New" font-size="14.00">head</text>
</g>
<!-- node1 -->
<g id="node2" class="node">
<title>node1</title>
<polygon fill="none" stroke="black" points="102.88,-25.25 102.88,-74.25 160.13,-74.25 160.13,-25.25 102.88,-25.25"/>
<text text-anchor="middle" x="131.5" y="-56.95" font-family="Courier New" font-size="14.00">a b a</text>
<polyline fill="none" stroke="black" points="102.88,-49.75 160.13,-49.75"/>
<text text-anchor="middle" x="131.5" y="-32.45" font-family="Courier New" font-size="14.00"> </text>
</g>
<!-- head&#45;&gt;node1 -->
<g id="edge1" class="edge">
<title>head&#45;&gt;node1:data</title>
<path fill="none" stroke="black" d="M67.16,-61.75C74.85,-61.75 83.21,-61.75 91.43,-61.75"/>
<polygon fill="black" stroke="black" points="91.36,-65.25 101.36,-61.75 91.36,-58.25 91.36,-65.25"/>
</g>
<!-- node2 -->
<g id="node3" class="node">
<title>node2</title>
<polygon fill="none" stroke="black" points="196.13,-0.5 196.13,-51 253.38,-51 253.38,-0.5 196.13,-0.5"/>
<text text-anchor="middle" x="224.75" y="-33.7" font-family="Courier New" font-size="14.00">c ∅ ∅</text>
<polyline fill="none" stroke="black" points="196.13,-25 253.38,-25"/>
<text text-anchor="middle" x="224.75" y="-7.7" font-family="Courier New" font-size="14.00">NULL</text>
</g>
<!-- node1&#45;&gt;node2 -->
<g id="edge2" class="edge">
<title>node1:next&#45;&gt;node2:data</title>
<path fill="none" stroke="black" d="M160.13,-37.75C171.5,-37.75 176.81,-37.75 184.68,-37.75"/>
<polygon fill="black" stroke="black" points="184.61,-41.25 194.61,-37.75 184.61,-34.25 184.61,-41.25"/>
</g>
</g>
</svg>
