<?xml version="1.0" encoding="UTF-8" standalone="no"?>
<!DOCTYPE svg PUBLIC "-//W3C//DTD SVG 1.1//EN"
 "http://www.w3.org/Graphics/SVG/1.1/DTD/svg11.dtd">
<!-- Generated by graphviz version 9.0.0 (20230911.1827)
 -->
<!-- Title: G Pages: 1 -->
<svg width="435pt" height="135pt"
 viewBox="0.00 0.00 434.88 135.00" xmlns="http://www.w3.org/2000/svg" xmlns:xlink="http://www.w3.org/1999/xlink">
<g id="graph0" class="graph" transform="scale(1 1) rotate(0) translate(4 131)">
<title>G</title>
<polygon fill="white" stroke="none" points="-4,4 -4,-131 430.88,-131 430.88,4 -4,4"/>
<!-- head -->
<g id="node1" class="node">
<title>head</title>
<ellipse fill="#f4f7ff" stroke="black" cx="33.44" cy="-109" rx="33.44" ry="18"/>
<text text-anchor="middle" x="33.44" y="-103.95" font-family="Courier New" font-size="14.00">head</text>
</g>
<!-- node1 -->
<g id="node2" class="node">
<title>node1</title>
<polygon fill="none" stroke="black" points="102.88,-72.5 102.88,-121.5 156.88,-121.5 156.88,-72.5 102.88,-72.5"/>
<text text-anchor="middle" x="129.88" y="-104.2" font-family="Courier New" font-size="14.00">a</text>
<polyline fill="none" stroke="black" points="102.88,-97 156.88,-97"/>
<text text-anchor="middle" x="129.88" y="-79.7" font-family="Courier New" font-size="14.00"> </text>
</g>
<!-- head&#45;&gt;node1 -->
<g id="edge1" class="edge">
<title>head&#45;&gt;node1:data</title>
<path fill="none" stroke="black" d="M67.16,-109C74.85,-109 83.21,-109 91.43,-109"/>
<polygon fill="black" stroke="black" points="91.36,-112.5 101.36,-109 91.36,-105.5 91.36,-112.5"/>
</g>
<!-- node2 -->
<g id="node3" class="node">
<title>node2</title>
<polygon fill="none" stroke="black" points="192.88,-48.5 192.88,-97.5 246.88,-97.5 246.88,-48.5 192.88,-48.5"/>
<text text-anchor="middle" x="219.88" y="-80.2" font-family="Courier New" font-size="14.00">b</text>
<polyline fill="none" stroke="black" points="192.88,-73 246.88,-73"/>
<text text-anchor="middle" x="219.88" y="-55.7" font-family="Courier New" font-size="14.00"> </text>
</g>
<!-- node1&#45;&gt;node2 -->
<g id="edge2" class="edge">
<title>node1:next&#45;&gt;node2:data</title>
<path fill="none" stroke="black" d="M156.88,-85C168.25,-85 173.56,-85 181.43,-85"/>
<polygon fill="black" stroke="black" points="181.36,-88.5 191.36,-85 181.36,-81.5 181.36,-88.5"/>
</g>
<!-- node3 -->
<g id="node4" class="node">
<title>node3</title>
<polygon fill="none" stroke="black" points="282.88,-24.5 282.88,-73.5 336.88,-73.5 336.88,-24.5 282.88,-24.5"/>
<text text-anchor="middle" x="309.88" y="-56.2" font-family="Courier New" font-size="14.00">a</text>
<polyline fill="none" stroke="black" points="282.88,-49 336.88,-49"/>
<text text-anchor="middle" x="309.88" y="-31.7" font-family="Courier New" font-size="14.00"> </text>
</g>
<!-- node2&#45;&gt;node3 -->
<g id="edge3" class="edge">
<title>node2:next&#45;&gt;node3:data</title>
<path fill="none" stroke="black" d="M246.88,-61C258.25,-61 263.56,-61 271.43,-61"/>
<polygon fill="black" stroke="black" points="271.36,-64.5 281.36,-61 271.36,-57.5 271.36,-64.5"/>
</g>
<!-- node4 -->
<g id="node5" class="node">
<title>node4</title>
<polygon fill="none" stroke="black" points="372.88,-0.5 372.88,-49.5 426.88,-49.5 426.88,-0.5 372.88,-0.5"/>
<text text-anchor="middle" x="399.88" y="-32.2" font-family="Courier New" font-size="14.00">c</text>
<polyline fill="none" stroke="black" points="372.88,-25 426.88,-25"/>
<text text-anchor="middle" x="399.88" y="-7.7" font-family="Courier New" font-size="14.00">NULL</text>
</g>
<!-- node3&#45;&gt;node4 -->
<g id="edge4" class="edge">
<title>node3:next&#45;&gt;node4:data</title>
<path fill="none" stroke="black" d="M336.88,-37C348.25,-37 353.56,-37 361.43,-37"/>
<polygon fill="black" stroke="black" points="361.36,-40.5 371.36,-37 361.36,-33.5 361.36,-40.5"/>
</g>
</g>
</svg>
